<svg xmlns="http://www.w3.org/2000/svg" viewBox="0 0 48.73 17"><defs><style>.cls-1{fill:#7289da;}.cls-2{fill:#fff;}</style></defs><title>Asset 3</title><g id="Layer_2" data-name="Layer 2"><g id="Layer_1-2" data-name="Layer 1"><rect class="cls-1" width="48.73" height="17" rx="0.55"/><path class="cls-2" d="M8.91,8.71a.67.67,0,0,0,0,1.33.67.67,0,0,0,0-1.33Zm-2.2,0a.67.67,0,1,0,.62.67A.65.65,0,0,0,6.71,8.71Z"/><path class="cls-2" d="M11.83,3.71H3.77A1.23,1.23,0,0,0,2.54,4.94V13a1.24,1.24,0,0,0,1.23,1.24h6.82l-.32-1.1.77.71.73.66,1.3,1.13V4.94A1.24,1.24,0,0,0,11.83,3.71ZM9.51,11.5,9.11,11a1.89,1.89,0,0,0,1.09-.71,3,3,0,0,1-.69.35,3.88,3.88,0,0,1-.87.26,4.29,4.29,0,0,1-1.56,0,5.29,5.29,0,0,1-.89-.26,4.19,4.19,0,0,1-.43-.21l-.06,0h0l-.17-.1a1.9,1.9,0,0,0,1,.7l-.4.5a2.22,2.22,0,0,1-1.84-.91,7.93,7.93,0,0,1,.87-3.48,3,3,0,0,1,1.68-.63l.06.08a3.83,3.83,0,0,0-1.57.78l.35-.17A4.75,4.75,0,0,1,7.08,6.8h.1a4.94,4.94,0,0,1,1.22,0,4.85,4.85,0,0,1,1.81.57,4,4,0,0,0-1.5-.76l.08-.1a3,3,0,0,1,1.69.63,7.93,7.93,0,0,1,.87,3.48,2.23,2.23,0,0,1-1.84.9ZM18.6,6.28h-2V8.53l1.33,1.19V7.55h.71c.45,0,.67.21.67.56V9.78c0,.35-.21.58-.67.58H16.59v1.27h2c1.07,0,2.08-.53,2.08-1.75V8.08A1.83,1.83,0,0,0,18.6,6.28Zm10.47,3.6V8c0-.66,1.19-.81,1.55-.15l1.1-.44a2,2,0,0,0-1.88-1.23A1.93,1.93,0,0,0,27.71,8V9.88a1.92,1.92,0,0,0,2.11,1.82,2.14,2.14,0,0,0,1.92-1.2L30.56,10c-.28.74-1.49.56-1.49-.08ZM25.43,8.29c-.42-.09-.7-.24-.71-.5,0-.62,1-.65,1.54,0l.88-.68a2.21,2.21,0,0,0-1.82-.86,1.74,1.74,0,0,0-1.93,1.61A1.73,1.73,0,0,0,25,9.5c.44.06.93.24.91.54,0,.57-1.21.54-1.75-.11l-.85.8a2.36,2.36,0,0,0,1.81,1,2,2,0,0,0,2.12-1.6c.06-1.31-.89-1.64-1.84-1.81Zm-4,3.34h1.35V6.28H21.39ZM44.12,6.28h-2V8.53l1.33,1.19V7.55h.71c.45,0,.68.21.68.56V9.78c0,.35-.21.58-.68.58h-2v1.27h2c1.07,0,2.08-.53,2.08-1.75V8.08A1.84,1.84,0,0,0,44.12,6.28Zm-9.8-.07a2,2,0,0,0-2.21,1.84V9.87a2,2,0,0,0,2.22,1.83,2,2,0,0,0,2.21-1.83V8.05A2,2,0,0,0,34.32,6.21Zm.87,3.66c0,.38-.44.58-.86.58s-.87-.18-.87-.58V8.05c0-.39.42-.61.84-.61s.89.19.89.61Zm6.19-1.82c0-1.26-.89-1.76-2-1.76H37.26v5.34h1.36V9.94h.24l1.24,1.69h1.69L40.33,9.8A1.63,1.63,0,0,0,41.38,8.05Zm-2,.72h-.8V7.55h.8A.61.61,0,1,1,39.42,8.77Z"/><path class="cls-2" d="M17.6,3.5l0,1.14v.13l0,.11,0,0,0,.05a.43.43,0,0,1-.36.17A.49.49,0,0,1,16.83,5a.39.39,0,0,1-.14-.3H17a.26.26,0,0,0,.05.09.12.12,0,0,0,.09,0,.12.12,0,0,0,.12-.06.32.32,0,0,0,0-.14l0-1.16Z"/><path class="cls-2" d="M18.7,3.46a.84.84,0,0,1,.59.27.78.78,0,0,1,.23.6.82.82,0,0,1-.25.59.85.85,0,0,1-.6.24.83.83,0,0,1-.59-.26.76.76,0,0,1-.24-.6.82.82,0,0,1,.25-.59.78.78,0,0,1,.61-.24Zm-.4.45a.57.57,0,0,0-.16.39.52.52,0,0,0,.15.39.54.54,0,0,0,.93-.37.48.48,0,0,0-.15-.39.5.5,0,0,0-.38-.17A.56.56,0,0,0,18.3,3.91Z"/><path class="cls-2" d="M19.81,3.49h.3l0,1.62h-.3Z"/><path class="cls-2" d="M20.47,3.48h.33l.66,1.2,0-1.19h.3l0,1.62h-.33l-.66-1.19,0,1.18h-.3Z"/><path class="cls-2" d="M22.94,3.79h-.3V3.49h.9v.3h-.3l0,1.33h-.3Z"/><path class="cls-2" d="M23.74,3.49H24v.65h.57l0-.65h.3l0,1.62h-.3V4.44H24v.68h-.3Z"/><path class="cls-2" d="M25.27,3.49h.87v.29h-.57v.37h.55v.29h-.55v.37h.57v.29h-.87Z"/><path class="cls-2" d="M28.23,4.68h.35a.71.71,0,0,1-.3.34.81.81,0,0,1-.45.13h0a.84.84,0,0,1-.59-.27.85.85,0,0,1,0-1.18.76.76,0,0,1,.59-.24.83.83,0,0,1,.46.14.75.75,0,0,1,.3.36h-.34a.65.65,0,0,0-.18-.15.53.53,0,0,0-.24-.06.51.51,0,0,0-.38.16.53.53,0,0,0-.16.39.55.55,0,0,0,.15.38.51.51,0,0,0,.37.18.56.56,0,0,0,.41-.18Z"/><path class="cls-2" d="M28.84,3.49h.3v.65h.58V3.5H30l0,1.62h-.3l0-.68h-.58v.68h-.31Z"/><path class="cls-2" d="M30.91,3.49h.24l.65,1.63h-.33L31.3,4.7h-.57l-.19.42h-.33Zm.28.92L31,3.92l-.18.48Z"/><path class="cls-2" d="M32.19,3.79h-.3V3.49h.9v.3h-.3l0,1.33h-.3Z"/></g></g></svg>